
<svg width="80" height="80" viewBox="0 0 80 80" fill="none" xmlns="http://www.w3.org/2000/svg"> <mask id="pmask0" style="mask-type:alpha" maskUnits="userSpaceOnUse" x="20" y="50" width="21" height="20"> <path d="M20.0183 50.0183H29.991L40.0365 69.9817H30.0638L20.0183 50.0183Z" fill="black"></path> </mask> <g mask="url(#pmask0)"> <rect x="20" y="50" width="20" height="20" fill="#050607"></rect> <rect x="20" y="50" width="20" height="20" fill="#CA9D75" class="preloader__fill" style="animation-delay: 640ms;"></rect>                 </g> <mask id="pmask1" style="mask-type:alpha" maskUnits="userSpaceOnUse" x="20" y="20" width="21" height="20"> <path d="M20.0183 20.0366H29.991L40.0365 40H30.0638L20.0183 20.0366Z" fill="black"></path> </mask> <g mask="url(#pmask1)"> <rect x="20" y="20" width="20" height="20" fill="#050607"></rect> <rect x="20" y="20" width="20" height="20" fill="#AC835E" class="preloader__fill" style="animation-delay: 1440ms;"></rect>                 </g> <mask id="pmask2" style="mask-type:alpha" maskUnits="userSpaceOnUse" x="0" y="20" width="21" height="20"> <path d="M0 20.0366H9.9727L20.0182 40H10.0455L0 20.0366Z" fill="black"></path> </mask> <g mask="url(#pmask2)"> <rect y="20" width="20" height="20" fill="#050607"></rect> <rect y="20" width="20" height="20" fill="#AC835E" class="preloader__fill" style="animation-delay: 320ms;"></rect>                 </g> <mask id="pmask3" style="mask-type:alpha" maskUnits="userSpaceOnUse" x="29" y="40" width="12" height="11"> <path d="M29.9908 40H35.0136L40.0363 50.0182H35.0136L29.9908 40Z" fill="black"></path> </mask> <g mask="url(#pmask3)"> <rect x="30" y="40" width="10" height="10" fill="#050607"></rect> <rect x="30" y="40" width="10" height="10" fill="#CA9D75" class="preloader__fill" style="animation-delay: 720ms;"></rect>                 </g> <mask id="pmask4" style="mask-type:alpha" maskUnits="userSpaceOnUse" x="20" y="40" width="10" height="11"> <path d="M20.0183 40H24.9683L29.991 50.0182H25.0411L20.0183 40Z" fill="black"></path> </mask> <g mask="url(#pmask4)"> <rect x="20" y="40" width="10" height="10" fill="#050607"></rect> <rect x="20" y="40" width="10" height="10" fill="#AC835E" class="preloader__fill" style="animation-delay: 240ms;"></rect>                 </g> <mask id="pmask5" style="mask-type:alpha" maskUnits="userSpaceOnUse" x="9" y="40" width="12" height="11"> <path d="M9.97266 40H14.9954L20.0182 50.0182H14.9954L9.97266 40Z" fill="black"></path> </mask> <g mask="url(#pmask5)"> <rect x="10" y="40" width="10" height="10" fill="#050607"></rect> <rect x="10" y="40" width="10" height="10" fill="#CA9D75" class="preloader__fill" style="animation-delay: 1280ms;"></rect>                 </g> <mask id="pmask6" style="mask-type:alpha" maskUnits="userSpaceOnUse" x="0" y="40" width="10" height="11"> <path d="M0 40H4.94996L9.9727 50.0182H5.02275L0 40Z" fill="black"></path> </mask> <g mask="url(#pmask6)"> <rect y="40" width="10" height="10" fill="#050607"></rect> <rect y="40" width="10" height="10" fill="#AC835E" class="preloader__fill" style="animation-delay: 1360ms;"></rect>                 </g> <mask id="pmask7" style="mask-type:alpha" maskUnits="userSpaceOnUse" x="40" y="50" width="21" height="20"> <path d="M60.0546 50.0183H50.0819L40.0364 69.9817H50.0091L60.0546 50.0183Z" fill="black"></path> </mask> <g mask="url(#pmask7)"> <rect x="40" y="50" width="20" height="20" fill="#050607"></rect> <rect x="40" y="50" width="20" height="20" fill="#AC835E" class="preloader__fill" style="animation-delay: 480ms;"></rect>                 </g> <mask id="pmask8" style="mask-type:alpha" maskUnits="userSpaceOnUse" x="20" y="0" width="21" height="21"> <path d="M20.0183 0H29.991L40.0365 20.0366H30.0638L20.0183 0Z" fill="black"></path> </mask> <g mask="url(#pmask8)"> <rect x="20" width="20" height="20" fill="#050607"></rect> <rect x="20" width="20" height="20" fill="#CA9D75" class="preloader__fill" style="animation-delay:


960ms;"></rect>                 </g> <mask id="pmask9" style="mask-type:alpha" maskUnits="userSpaceOnUse" x="40" y="0" width="21" height="21"> <path d="M60.0546 0H50.0819L40.0364 20.0366H50.0091L60.0546 0Z" fill="black"></path> </mask> <g mask="url(#pmask9)"> <rect x="40" width="20" height="20" fill="#050607"></rect> <rect x="40" width="20" height="20" fill="#AC835E" class="preloader__fill" style="animation-delay: 560ms;"></rect>                 </g> <mask id="pmask10" style="mask-type:alpha" maskUnits="userSpaceOnUse" x="40" y="20" width="21" height="20"> <path d="M60.0546 20.0366H50.0819L40.0364 40H50.0091L60.0546 20.0366Z" fill="black"></path> </mask> <g mask="url(#pmask10)"> <rect x="40" y="20" width="20" height="20" fill="#050607"></rect> <rect x="40" y="20" width="20" height="20" fill="#CA9D75" class="preloader__fill" style="animation-delay: 1040ms;"></rect>                 </g> <mask id="pmask11" style="mask-type:alpha" maskUnits="userSpaceOnUse" x="60" y="20" width="20" height="20"> <path d="M80 20.0366H70.1001L60.0546 40H69.9545L80 20.0366Z" fill="black"></path> </mask> <g mask="url(#pmask11)"> <rect x="60" y="20" width="20" height="20" fill="#050607"></rect> <rect x="60" y="20" width="20" height="20" fill="#CA9D75" class="preloader__fill" style="animation-delay: 1120ms;"></rect>                 </g> <mask id="pmask12" style="mask-type:alpha" maskUnits="userSpaceOnUse" x="40" y="40" width="11" height="11"> <path d="M50.0091 40H45.0591L40.0364 50.0182H44.9863L50.0091 40Z" fill="black"></path> </mask> <g mask="url(#pmask12)"> <rect x="40" y="40" width="10" height="10" fill="#050607"></rect> <rect x="40" y="40" width="10" height="10" fill="#AC835E" class="preloader__fill" style="animation-delay: 0ms;"></rect>                 </g> <mask id="pmask13" style="mask-type:alpha" maskUnits="userSpaceOnUse" x="29" y="69" width="12" height="11"> <path d="M29.9908 69.9817H35.0136L40.0363 80H35.0136L29.9908 69.9817Z" fill="black"></path> </mask> <g mask="url(#pmask13)"> <rect x="30" y="70" width="10" height="10" fill="#050607"></rect> <rect x="30" y="70" width="10" height="10" fill="#AC835E" class="preloader__fill" style="animation-delay: 160ms;"></rect>                 </g> <mask id="pmask14" style="mask-type:alpha" maskUnits="userSpaceOnUse" x="40" y="69" width="11" height="11"> <path d="M50.0091 69.9817H45.0591L40.0364 80H44.9863L50.0091 69.9817Z" fill="black"></path> </mask> <g mask="url(#pmask14)"> <rect x="40" y="70" width="10" height="10" fill="#050607"></rect> <rect x="40" y="70" width="10" height="10" fill="#CA9D75" class="preloader__fill" style="animation-delay: 880ms;"></rect>                 </g> <mask id="pmask15" style="mask-type:alpha" maskUnits="userSpaceOnUse" x="50" y="40" width="11" height="11"> <path d="M60.0545 40H55.0318L50.009 50.0182H55.0318L60.0545 40Z" fill="black"></path> </mask> <g mask="url(#pmask15)"> <rect x="50" y="40" width="10" height="10" fill="#050607"></rect> <rect x="50" y="40" width="10" height="10" fill="#CA9D75" class="preloader__fill" style="animation-delay: 400ms;"></rect>                 </g> <mask id="pmask16" style="mask-type:alpha" maskUnits="userSpaceOnUse" x="60" y="40" width="11" height="11"> <path d="M70.0273 40H65.0773L60.0546 50.0182H65.0045L70.0273 40Z" fill="black"></path> </mask> <g mask="url(#pmask16)"> <rect x="60" y="40" width="10" height="10" fill="#050607"></rect> <rect x="60" y="40" width="10" height="10" fill="#AC835E" class="preloader__fill" style="animation-delay: 1520ms;"></rect>                 </g> <mask id="pmask17" style="mask-type:alpha" maskUnits="userSpaceOnUse" x="70" y="40" width="10" height="11"> <path d="M80.0001 40H75.0501L70.0273 50.0182H74.9773L80.0001 40Z" fill="black"></path> </mask> <g mask="url(#pmask17)"> <rect x="70" y="40" width="10" height="10" fill="#050607"></rect> <rect x="70" y="40" width="10" height="10" fill="#CA9D75" class="preloader__fill" style="animation-delay: 800ms;"></rect>                 </g> </svg>