<svg version="1.2" xmlns="http://www.w3.org/2000/svg" viewBox="0 0 58 32" width="58" height="32"><style>tspan{white-space:pre}.a{fill:#f37a20}.b{fill:#faae16}.c{font-size: 4px;line-height: 3px;fill: #232424;font-weight: bold;font-family: "Koz Go Pro"}.d{font-size: 3px;line-height: 3px;fill: #232424;font-family: "Koz Go Pro"}.e{fill:#fbae17}</style><path fill-rule="evenodd" class="a" d="m20.9 29.6q-1.2 1.2-2.9 1.2v-17q0-4 2.9-6.9 2.9-2.8 6.9-2.8 4.1 0 7 2.8 2.9 2.9 2.9 6.9 0 4-2.9 6.9-2.9 2.8-7 2.8h-5.7v3.2q0 1.7-1.2 2.9zm6.9-10q2.4 0 4.1-1.7 1.7-1.7 1.7-4.1 0-2.4-1.7-4.1-1.7-1.8-4.1-1.8-2.4 0-4 1.8-1.7 1.7-1.7 4.1v5.8z"/><path fill-rule="evenodd" class="b" d="m51.1 20.6q-2.9 2.9-6.9 2.9-4 0-6.9-2.9-2.9-2.8-2.9-6.8 0-4.1 2.9-6.9 2.9-2.8 6.9-2.8h9.8v9.7q0 4-2.9 6.8zm-6.9-12.7q-2.4 0-4.1 1.8-1.6 1.7-1.6 4.1 0 2.4 1.6 4.1 1.7 1.7 4.1 1.7 2.4 0 4.1-1.7 1.6-1.7 1.6-4.1v-5.9z"/><path fill-rule="evenodd" class="a" d="m17.1 1.2q1.2-1.2 2.8-1.2v14.5q0 4-2.8 6.9-2.9 2.8-7 2.8-4 0-6.9-2.8-2.9-2.9-2.9-6.9 0-4 2.9-6.9 2.9-2.8 6.9-2.8h5.8v-0.8q0-1.6 1.2-2.8zm-7 7.5q-2.4 0-4 1.7-1.7 1.7-1.7 4.1 0 2.4 1.7 4.1 1.6 1.8 4 1.8 2.4 0 4.1-1.8 1.7-1.7 1.7-4.1v-5.8z"/><text style="transform:matrix(1,0,0,1,23.937,24.869)" ><tspan x="0" y="3.1" class="c">DUONGPHONG
</tspan><tspan x="0" y="5.7" class="d">advertising
</tspan></text><path class="e" d="m44.1 9.4q-1.8 0-3 1.3-1.3 1.3-1.3 3.1 0 1.8 1.3 3.1 1.2 1.3 3 1.3 1.8 0 3.1-1.3 1.2-1.3 1.2-3.1v-4.4z"/></svg>