<svg version="1.2" xmlns="http://www.w3.org/2000/svg" viewBox="0 0 24 24" width="24" height="24"><style>.a{fill:#fefefe}</style><path class="a" d="m2.7 3.3c0 1.1 0.2 8.4 6.2 13.6 4.8 4.1 10.3 4.2 11.8 4.2 0.2-0.1 0.5-0.3 0.7-0.6 0.1-0.3 0.1-0.6 0.1-0.8q-0.1-0.9 0-3.6c-0.1 0-0.1-0.3-0.4-0.5-0.3-0.2-0.6-0.2-0.6-0.2q-0.8 0-1.7-0.1-1.1-0.2-2-0.5c0 0-0.3-0.1-0.7-0.1-0.3 0.1-0.5 0.3-0.6 0.4q-1.1 1.1-2.1 2.2c-1-0.5-2.3-1.3-3.6-2.5-1.7-1.5-2.7-3.2-3.3-4.4q1.1-1.1 2.3-2.3c0.1 0 0.3-0.3 0.3-0.6 0-0.4-0.1-0.6-0.1-0.7-0.2-0.4-0.4-0.9-0.4-1.6-0.1-0.6-0.1-1.2-0.1-1.6 0-0.1 0-0.4-0.2-0.7-0.2-0.4-0.6-0.5-0.7-0.5-1 0-1.8 0-2.4-0.1-1 0-1.7-0.2-2.1 0.3-0.3 0.2-0.3 0.5-0.4 0.7z"/></svg>