<svg version="1.2" xmlns="http://www.w3.org/2000/svg" viewBox="0 0 32 28" width="32" height="28"><style>.a{fill:#fefefe}.b{fill:#be9452}</style><path class="a" d="m3.1 9.2c0-3.9 3.2-7 7-7h13.4c3.9 0 7 3.1 7 7v8.7c0 3.9-3.1 7-7 7h-13.4c-3.8 0-7-3.1-7-7z"/><path class="b" d="m7.5 5.2c0 1.1 0.1 8.4 6.2 13.6 4.7 4.1 10.2 4.2 11.7 4.2 0.2-0.1 0.5-0.3 0.7-0.6 0.2-0.3 0.1-0.6 0.1-0.8q-0.1-0.9 0-3.5c0-0.1-0.1-0.4-0.4-0.6-0.2-0.2-0.5-0.2-0.6-0.2q-0.8 0-1.7-0.1-1.1-0.2-1.9-0.5c-0.1 0-0.4-0.1-0.7 0-0.4 0-0.6 0.3-0.7 0.3q-1 1.1-2.1 2.2c-1-0.5-2.3-1.3-3.5-2.4-1.8-1.6-2.8-3.3-3.4-4.4q1.2-1.2 2.3-2.3c0.1-0.1 0.3-0.4 0.3-0.7 0-0.3-0.1-0.6-0.1-0.7-0.2-0.4-0.3-0.9-0.4-1.6-0.1-0.6-0.1-1.2-0.1-1.6 0-0.1 0-0.4-0.1-0.7-0.3-0.4-0.7-0.5-0.7-0.5-1.1 0-1.9 0-2.5-0.1-1 0-1.7-0.1-2.1 0.3-0.2 0.2-0.3 0.5-0.3 0.7z"/></svg>